<?xml version="1.0" encoding="utf-8"?>
<svg xmlns="http://www.w3.org/2000/svg" viewBox="0 117.394 500 191.465">
  <defs>
    <clipPath id="clippath-5">
      <polygon class="cls-2" points="325.35 235.5 363.31 216.86 296.88 199.67 325.35 235.5" style="fill: rgb(0, 54, 88); stroke-width: 0px;"/>
    </clipPath>
    <clipPath id="clippath-6">
      <polygon class="cls-2" points="217.51 193.81 261 203.08 271.51 190.21 217.51 193.81" style="fill: rgb(0, 54, 88); stroke-width: 0px;"/>
    </clipPath>
    <clipPath id="clippath-7">
      <polygon class="cls-2" points="277.98 224.95 294.85 250.61 313.33 250.23 288.04 215.87 277.98 224.95" style="fill: rgb(0, 54, 88); stroke-width: 0px;"/>
    </clipPath>
    <clipPath id="clippath-8">
      <polygon class="cls-2" points="179.79 359.22 316.9 290.57 318.97 267.91 179.79 359.22" style="fill: rgb(0, 54, 88); stroke-width: 0px;"/>
    </clipPath>
    <clipPath id="clippath-9">
      <polygon class="cls-2" points="345.97 308.41 337.87 321.42 337.87 322.03 395.44 305.34 345.97 308.41" style="fill: rgb(0, 54, 88); stroke-width: 0px;"/>
    </clipPath>
  </defs>
  <g id="Layer_1" transform="matrix(1, 0, 0, 1, -167.821243, -44.073475)">
    <g transform="matrix(0.747295, 0, 0, 0.747295, 100.384819, 37.207706)">
      <polygon class="cls-2" points="562.56 195.38 572.58 195.38 572.58 202.01 562.56 202.01 562.56 215.6 575.17 215.6 575.17 222.23 555.25 222.23 555.25 175.82 575.17 175.82 575.17 182.45 562.56 182.45 562.56 195.38" style="fill: rgb(0, 54, 88); stroke-width: 0px;"/>
      <polygon class="cls-2" points="604.04 175.82 596.41 198.36 604.57 222.23 596.87 222.23 590.97 203.86 590.83 203.86 584.86 222.23 578.02 222.23 586.19 198.36 578.55 175.82 586.12 175.82 591.56 192.92 591.7 192.92 597.27 175.82 604.04 175.82" style="fill: rgb(0, 54, 88); stroke-width: 0px;"/>
      <polygon class="cls-2" points="606.1 175.82 628.67 175.82 628.67 182.45 621.04 182.45 621.04 222.23 613.73 222.23 613.73 182.45 606.1 182.45 606.1 175.82" style="fill: rgb(0, 54, 88); stroke-width: 0px;"/>
      <path class="cls-2" d="M647.12,222.23c-.4-1.19-.66-1.92-.66-5.7v-7.29c0-4.31-1.46-5.9-4.78-5.9h-2.52v18.89h-7.3v-46.4h11.02c7.57,0,10.82,3.51,10.82,10.67v3.65c0,4.77-1.53,7.82-4.78,9.35v.13c3.65,1.52,4.84,4.97,4.84,9.81v7.16c0,2.25.07,3.91.8,5.64h-7.43ZM639.16,182.45v14.25h2.85c2.72,0,4.38-1.19,4.38-4.91v-4.57c0-3.31-1.13-4.77-3.72-4.77h-3.52Z" style="fill: rgb(0, 54, 88); stroke-width: 0px;"/>
      <polygon class="cls-2" points="665.84 195.38 675.87 195.38 675.87 202.01 665.84 202.01 665.84 215.6 678.46 215.6 678.46 222.23 658.54 222.23 658.54 175.82 678.46 175.82 678.46 182.45 665.84 182.45 665.84 195.38" style="fill: rgb(0, 54, 88); stroke-width: 0px;"/>
      <polygon class="cls-2" points="698.37 208.77 698.5 208.77 703.41 175.82 713.57 175.82 713.57 222.23 706.67 222.23 706.67 188.95 706.53 188.95 701.62 222.23 694.72 222.23 689.41 189.41 689.28 189.41 689.28 222.23 682.9 222.23 682.9 175.82 693.06 175.82 698.37 208.77" style="fill: rgb(0, 54, 88); stroke-width: 0px;"/>
      <polygon class="cls-2" points="726.18 195.38 736.21 195.38 736.21 202.01 726.18 202.01 726.18 215.6 738.79 215.6 738.79 222.23 718.88 222.23 718.88 175.82 738.79 175.82 738.79 182.45 726.18 182.45 726.18 195.38" style="fill: rgb(0, 54, 88); stroke-width: 0px;"/>
      <path class="cls-2" d="M743.85,322.83h-194.46v-43.38h194.46v43.38ZM577.66,284.84h-7.48l-5.21,32.5h4.7l.88-5.9h6.28l.88,5.9h5.16l-5.21-32.5ZM573.62,290.6h.09l2.42,16.44h-4.93l2.42-16.44ZM585.24,317.34h8.09c5.11,0,7.62-2.83,7.62-8.03v-16.44c0-5.2-2.51-8.03-7.62-8.03h-8.09v32.5ZM593.23,289.49c1.63,0,2.6.84,2.6,3.16v16.9c0,2.32-.98,3.16-2.6,3.16h-2.88v-23.21h2.88ZM607.97,284.84h-5.16l5.02,32.5h7.62l5.02-32.5h-4.7l-3.86,26.51h-.09l-3.86-26.51ZM627.96,289.49h8.83v-4.64h-13.95v32.5h13.95v-4.64h-8.83v-9.52h7.02v-4.64h-7.02v-9.05ZM650.88,317.34h5.25v-32.5h-4.56v19.45h-.09l-5.16-19.45h-6.42v32.5h4.6v-23.54h.09l6.28,23.54ZM658.32,289.49h5.35v27.86h5.11v-27.86h5.35v-4.64h-15.81v4.64ZM676.12,284.84v24.75c0,5.2,2.6,8.17,7.62,8.17s7.62-2.97,7.62-8.17v-24.75h-4.83v25.07c0,2.32-1.02,3.16-2.65,3.16s-2.65-.84-2.65-3.16v-25.07h-5.11ZM710.76,317.34c-.51-1.21-.56-2.37-.56-3.95v-5.01c0-3.39-.84-5.8-3.39-6.87v-.09c2.28-1.07,3.35-3.2,3.35-6.55v-2.55c0-5.01-2.28-7.47-7.58-7.47h-7.72v32.5h5.11v-13.23h1.77c2.32,0,3.35,1.11,3.35,4.13v5.11c0,2.65.19,3.16.46,3.99h5.21ZM702.44,289.49c1.81,0,2.6,1.02,2.6,3.34v3.2c0,2.6-1.16,3.44-3.07,3.44h-2v-9.98h2.46ZM718.66,289.49h8.83v-4.64h-13.95v32.5h13.95v-4.64h-8.83v-9.52h7.02v-4.64h-7.02v-9.05Z" style="fill: rgb(0, 54, 88); stroke-width: 0px;"/>
      <polygon class="cls-8" points="544.95 272.78 537.83 272.78 537.83 227.55 544.95 227.55 544.95 246.93 553.04 246.93 553.04 227.55 560.28 227.55 560.28 272.78 553.04 272.78 553.04 253.39 544.95 253.39 544.95 272.78" style="fill: rgb(0, 110, 127); stroke-width: 0px;"/>
      <rect class="cls-8" x="565.46" y="227.55" width="7.12" height="45.23" style="fill: rgb(0, 110, 127); stroke-width: 0px;"/>
      <polygon class="cls-8" points="592.76 259.66 592.89 259.66 597.68 227.55 607.58 227.55 607.58 272.78 600.85 272.78 600.85 240.34 600.72 240.34 595.93 272.78 589.2 272.78 584.03 240.79 583.9 240.79 583.9 272.78 577.69 272.78 577.69 227.55 587.59 227.55 592.76 259.66" style="fill: rgb(0, 110, 127); stroke-width: 0px;"/>
      <path class="cls-8" d="M635.79,272.78h-7.18l-1.23-8.21h-8.73l-1.23,8.21h-6.53l7.25-45.23h10.42l7.25,45.23ZM619.55,258.43h6.86l-3.36-22.87h-.13l-3.36,22.87Z" style="fill: rgb(0, 110, 127); stroke-width: 0px;"/>
      <polygon class="cls-8" points="639.09 227.55 646.2 227.55 646.2 266.32 657.92 266.32 657.92 272.78 639.09 272.78 639.09 227.55" style="fill: rgb(0, 110, 127); stroke-width: 0px;"/>
      <path class="cls-8" d="M684.05,272.78h-7.18l-1.23-8.21h-8.73l-1.23,8.21h-6.53l7.25-45.23h10.42l7.25,45.23ZM667.81,258.43h6.86l-3.36-22.87h-.13l-3.36,22.87Z" style="fill: rgb(0, 110, 127); stroke-width: 0px;"/>
      <polygon class="cls-8" points="690.85 257.79 681.85 227.55 689.3 227.55 694.67 248.16 694.8 248.16 700.16 227.55 706.96 227.55 697.97 257.79 697.97 272.78 690.85 272.78 690.85 257.79" style="fill: rgb(0, 110, 127); stroke-width: 0px;"/>
      <path class="cls-8" d="M729.67,272.78h-7.18l-1.23-8.21h-8.73l-1.23,8.21h-6.53l7.25-45.23h10.42l7.25,45.23ZM713.43,258.43h6.86l-3.36-22.87h-.13l-3.36,22.87Z" style="fill: rgb(0, 110, 127); stroke-width: 0px;"/>
      <polygon class="cls-8" points="739.44 240.02 739.31 240.02 739.31 272.78 732.91 272.78 732.91 227.55 741.83 227.55 749.01 254.62 749.14 254.62 749.14 227.55 755.48 227.55 755.48 272.78 748.17 272.78 739.44 240.02" style="fill: rgb(0, 110, 127); stroke-width: 0px;"/>
    </g>
    <g transform="matrix(0.747295, 0, 0, 0.747295, 100.384819, 37.207706)">
      <polygon class="cls-2" points="180.93 189.11 272.41 189.52 315.28 250.72 125.21 392.44 319.1 264.93 346.42 306.75 442.51 301.67 337.3 322.81 317.67 292.46 86.4 419.45 292.86 250.89 260.65 204.14 180.93 189.11" style="fill: rgb(0, 54, 88); stroke-width: 0px;"/>
      <polygon class="cls-2" points="289.83 196.8 324.28 245.24 440.83 175.82 393.51 175.82 381.89 186.65 406.11 186.98 363.72 209.57 302.19 185.18 289.83 196.8" style="fill: rgb(0, 54, 88); stroke-width: 0px;"/>
      <path class="cls-2" d="M356.87,289.9c-.21-.24-.05-.47.05-.68.2-.43.42-.85.67-1.25.71-1.16,1.14-2.42,1.45-3.73.27-1.16.64-2.29,1.02-3.42.25-.74.7-1.37,1.12-2.01.34-.52.68-1.04,1.07-1.53.61-.78.67-1.68.68-2.61,0-.32-.24-.54-.34-.85.18-.72.34-1.47.56-2.21.2-.68.13-1.26-.22-1.91-.65-1.22-1.45-2.3-2.46-3.23-.11-.1-.21-.25-.34-.29-.83-.26-1.55-.8-2.43-.89-1.2-.12-2.21-.69-3.17-1.35-.4-.28-.8-.37-1.26-.27-.43.1-.65.35-.51.75.26.77.31,1.61.78,2.31.24.35.42.74.42,1.17,0,.4-.2.63-.6.58-1.25-.18-2.52-.18-3.72-.66-.93-.37-1.91-.53-2.92-.4-.35.05-.69,0-1.04-.06-.76-.15-1.52-.16-2.3-.07-.66.08-1.34.11-2,.14-1.37.06-2.63.51-3.83,1.12-.95.49-1.95.74-2.99.85-1.38.14-2.77.22-4.15.32-.2.01-.4.04-.57-.11-.09-.18.03-.28.14-.38,1.12-.9,2.1-1.96,3.2-2.89,1.41-1.2,2.7-2.55,4.3-3.54.78-.48,1.46-1.1,2.19-1.65,1.44-1.08,2.84-2.23,4.33-3.25.28-.19.58-.28.91-.26.85.04,1.68.15,2.49.41.8.26,1.62.45,2.33.95.34.24.76.23,1.16.2,1.19-.09,2.32.11,3.42.56.46.19.95.27,1.45.32,1.4.16,2.8.35,4.23.29.88-.03,1.73-.21,2.56-.43.7-.19,1.36-.59,2-.95,1.14-.63,2.26-1.32,3.34-2.06,1.24-.85,2.5-1.68,3.61-2.72.27-.25.57-.47.85-.71.91-.79,1.55-1.8,2.28-2.74.8-1.04,1.53-2.14,2.48-3.05.2-.19.39-.38.55-.6.58-.79,1.45-1.16,2.25-1.65,1.04-.64,2.25-.86,3.25-1.56.65-.45,1.09-1.08,1.55-1.68.64-.85,1.14-1.79,1.69-2.7.57-.94,1.37-1.7,2.22-2.39.38-.3.87-.46,1.31-.68.82-.4,1.57-.92,2.49-1.13.69-.16,1.31-.57,1.9-.97.25-.17.49-.34.77-.44.19-.07.36-.16.52-.28.7-.56,1.5-.94,2.3-1.33.64-.32,1.28-.64,1.89-1,.66-.39,1.38-.65,2.01-1.12.27-.2.61-.32.86-.57.16-.16.36-.27.58-.32.74-.17,1.28-.63,1.72-1.21.18-.24.38-.46.63-.63,1.15-.79,2.13-1.78,3.15-2.72.98-.91,2-1.78,3.02-2.65.45-.39.91-.77,1.31-1.21.17-.18.36-.35.56-.49.48-.35.91-.32,1.33.09.5.48.99.97,1.46,1.48.63.67,1.37,1.22,2.07,1.8.18.14.39.22.6.28.22.06.43.14.6.28.63.5,1.46.61,2.1,1.09.22.16.53.13.8.13.5.01.99,0,1.49.03,1.01.06,1.99.22,2.97.56.92.32,1.78.76,2.6,1.22,1.06.6,2.19,1,3.27,1.53,1.36.66,2.6,1.52,3.68,2.59.33.33.68.65,1.02.97.09.08.19.17.31.2.69.21,1.37.45,2.07.6.61.13,1.2.05,1.81-.21,1.35-.56,2.78-.56,4.16-.19.7.19,1.33.64,1.94,1.07.12.09.22.23.35.27.81.19,1.45.74,2.21,1.04.73.29,1.43.67,2.06,1.16.08.06.15.15.23.18.8.26,1.26.92,1.83,1.47.51.49,1.04.96,1.79,1.15.59.15,1.17.43,1.69.75.37.23.62.63.94.94.55.53,1.14,1.01,1.8,1.42.5.32.96.69,1.46,1.01.41.25.83.41,1.26.6,1.17.52,2.47.74,3.54,1.5.65.46,1.03,1.13,1.42,1.78.5.85.96,1.73,1.55,2.53.41.56,1.04.74,1.69.82,1.43.19,2.75-.26,4.03-.8.75-.32,1.43-.32,2.15-.02.93.39,1.72.95,2.41,1.69.45.48.93.97,1.61,1.16.18.05.33.21.5.32.14.09.27.25.43.28.59.14,1.07.53,1.61.73,1.07.4,1.85,1.14,2.58,1.95.49.56,1.12.9,1.75,1.24.39.21.78.44,1.18.62.96.44,1.66,1.17,2.34,1.91.53.58,1.19.97,1.79,1.43.7.54,1.46,1.04,2.26,1.39.71.31,1.33.75,2.01,1.09.51.25.96.6,1.46.87.86.46,1.78.75,2.64,1.18.87.44,1.86.53,2.8.72,1.43.29,2.86.22,4.3,0,1.18-.17,2.37-.16,3.57-.16,1.14,0,2.28.02,3.42-.08,1.49-.13,2.98,0,4.47-.08.22,0,.45-.02.61.23-.03.36-.34.36-.59.4-.93.17-1.85.39-2.79.47-2.23.19-4.43.57-6.63.9-.12.02-.25.04-.37.04-1.51-.01-3.02.13-4.53.2-1.02.04-1.98-.22-2.91-.75-.7-.4-1.45-.74-2.18-1.1-1-.5-2.05-.87-3.08-1.28-.93-.38-1.78-.99-2.81-1.11-.24-.03-.47-.16-.68-.29-.34-.22-.7-.37-1.08-.49-.26-.08-.51-.19-.73-.36-.24-.19-.51-.3-.8-.38-.12-.03-.27-.04-.35-.11-.67-.6-1.58-.7-2.3-1.17-.23-.15-.5-.22-.76-.29-.41-.1-.81-.23-1.17-.47-.27-.18-.58-.27-.91-.32-.12-.02-.26,0-.37-.06-1.13-.5-2.35-.75-3.48-1.26-.9-.4-1.77-.86-2.72-1.17-1.2-.4-2.36-.97-3.29-1.92-.56-.57-1.2-1.12-2.08-1.19-.28-.02-.53-.14-.76-.28-.73-.44-1.53-.55-2.36-.56-.3,0-.6-.03-.89,0-1.17.1-2.25-.22-3.31-.67-.54-.23-.89-.69-1.13-1.14-.32-.6-.74-1.11-1.12-1.66-.94-1.38-2.03-2.62-3.34-3.67-.69-.56-1.32-1.19-1.97-1.8-.76-.72-1.68-1.23-2.51-1.84-.33-.24-.74-.4-1.12-.56-.87-.37-1.6-.96-2.46-1.36-.75-.34-1.57-.58-2.23-1.14-.39-.33-.93-.42-1.38-.72-.56-.37-1.06-.8-1.61-1.19-.86-.62-1.68-1.31-2.56-1.91-.71-.49-1.5-.87-2.38-.97-1.71-.19-3.42-.09-5.13-.13-.82-.02-1.63-.1-2.45-.16-.15-.01-.31-.03-.43-.1-.98-.51-2.01-.97-2.85-1.72-.86-.76-1.85-1.3-2.86-1.84-.27-.14-.57-.17-.87-.19-.7-.06-1.37-.2-2.03-.44-.37-.14-.76-.22-1.14-.33-.17-.05-.36-.06-.49-.15-.67-.48-1.46-.71-2.16-1.13-.02-.01-.04-.04-.06-.04-1-.26-1.86-.92-2.9-1.08-.42-.07-.82-.17-1.16-.46-.17-.14-.39-.2-.6-.29-.18-.08-.4-.11-.54-.24-.6-.55-1.38-.77-2.06-1.17-1.08-.64-2.19-.45-3.25.16-.19.11-.35.27-.54.39-.35.22-.52.53-.53.92-.01.71-.34,1.32-.56,1.97-.44,1.28-.92,2.57-.97,3.96-.03.92-.04,1.84-.05,2.75,0,.69-.19,1.28-.67,1.83-.75.86-1.49,1.72-2.29,2.53-.57.58-.9,1.31-.95,2.13-.06.9-.24,1.76-.67,2.57-.22.4-.27.85.09,1.2.23.08.39,0,.51-.14.26-.3.52-.6.74-.93.58-.86,1.17-1.71,1.71-2.6.36-.6.82-1.11,1.27-1.64.35-.42.78-.76,1.09-1.22.14-.2.31-.4.63-.32.33.25.23.61.19.95-.03.32-.12.64-.13.96-.02.61.26.88.86.83.22-.02.46-.05.64-.16.96-.57,1.85-1.26,2.51-2.17.58-.8,1.1-1.65,1.63-2.48.14-.22.29-.42.59-.34.26.07.32.3.32.53,0,1.21.09,2.43-.06,3.64-.15,1.23-.3,2.46-.37,3.7-.06,1.01-.5,1.86-.94,2.72-.12.23-.32.39-.57.44-.82.15-1.44.68-2.05,1.15-1.14.87-2.25,1.78-3.18,2.89-.63.76-.62,1.15,0,1.94.54.67,1.16,1.3,1.36,2.18.07.3.31.5.55.68.22.16.42.34.65.5.58.4.85.94,1.03,1.64.22.85.58,1.68,1.12,2.4.14.19.14.19.15.61-.31.26-.63.11-.88-.07-.83-.61-1.84-.72-2.77-1.03-1.25-.42-2.46-.11-3.6.44-.45.22-.77.62-1.13.96-.85.8-1.56,1.73-2.3,2.63-.77.94-1.48,1.92-2.2,2.9-.24.33-.37.7-.57,1.04-.58,1.04-1.19,2.05-1.87,3.02-.32.46-.53,1.01-.88,1.46-.09.12-.16.26-.33.27-.22-.06-.22-.26-.2-.42.11-1.74-.1-3.47-.16-5.2-.04-1.13.03-2.23.67-3.23.12-.18.16-.42.2-.64.17-.81.61-1.47,1.16-2.04.39-.4.65-.88.96-1.32.98-1.4,1.96-2.79,2.79-4.29.44-.78,1.06-1.43,1.7-2.06.47-.46.74-1.05,1.15-1.55.28-.35.18-.67-.21-1.04-.51-.47-1.04-.91-1.47-1.47-.16-.22-.35-.41-.45-.68-.11-.31-.34-.54-.58-.76-1.4-1.28-3-1.11-4.61-.6-.57.18-1.12.38-1.72.43-.57.05-1.13.17-1.66.4-.25.11-.51.21-.78.25-.63.08-1.2.27-1.76.57-.21.11-.47.19-.71.21-1.41.13-2.79.47-4.18.69-.27.04-.54.05-.81.1-.51.09-.7.28-.71.8-.01.47.02.94.06,1.41.17,1.68.6,3.32.97,4.96.13.59.41,1.18.74,1.69.36.56.7,1.14,1.1,1.67.41.55.72,1.18,1.04,1.79.62,1.21,1.21,2.44,1.81,3.66.4.81.39,1.63-.05,2.42-.29.53-.68.99-1.11,1.39-.45.42-.64.9-.65,1.52-.02,1.5-.04,1.51-1.53,1.86-1.53.36-3.08.52-4.65.52-1.34,0-2.68.12-3.97.54-.4.13-.78.31-1.14.54-1.81,1.15-3.13,2.71-4.02,4.66-.6,1.33-1.28,2.63-2.19,3.8-.51.67-.96,1.39-1.4,2.1-.42.68-.98,1.25-1.49,1.85-.09.11-.21.21-.36.21-.17-.22-.03-.39.03-.57.65-1.74,1.43-3.43,2.14-5.15.69-1.67,1.29-3.38,1.64-5.17.41-2.05.62-4.12.7-6.21.07-1.7.4-3.35.95-4.95.42-1.22.11-2.36-.34-3.47-.26-.64-.28-1.13.14-1.72.63-.87,1.42-1.58,2.09-2.42.49-.61.74-1.34,1.11-2.01.2-.36.12-.83.07-1.25-.04-.27-.2-.46-.46-.53-.59-.15-1.16-.16-1.73.15-1.22.67-2.27,1.58-3.41,2.38-.1.07-.18.2-.29.22-.68.15-1.13.69-1.73.99-.65.33-1.03.88-1.08,1.59-.08,1-.29,1.96-.65,2.89-.11.3-.15.63-.19.95-.06.5-.18.97-.48,1.39-.07.1-.15.21-.17.33-.19,1.15-.99,1.97-1.52,2.93-.4.72-.96,1.4-.87,2.32.04.39-.26.68-.43,1.01-.61,1.1-1.36,2.13-1.64,3.39-.17.75-.33,1.5-.42,2.27-.2,1.71-.59,3.36-1.37,4.92-.38.75-.87,1.39-1.53,1.89-.84.63-1.44,1.43-1.8,2.41-.2.53-.52.94-.97,1.28-.7.52-1.36,1.08-1.92,1.76-.08.09-.16.2-.32.17" style="fill: rgb(0, 54, 88); stroke-width: 0px;"/>
      <path class="cls-2" d="M433.23,256.15c-.19-.08-.37-.15-.53-.21-.04-.06-.09-.1-.09-.15-.04-1.16-.08-2.33.09-3.48.07-.46.27-.83.63-1.14,1.01-.85,1.6-1.99,2.06-3.21.07-.18.14-.38.25-.53.21-.29.34-.6.41-.95.05-.29.14-.59.31-.83.26-.37.41-.79.51-1.23.06-.27.18-.51.34-.74.2-.29.35-.6.43-.94.08-.34.24-.65.43-.94.12-.18.25-.39.29-.6.16-.72.68-1.26.97-1.92.18-.42.61-.49,1.02-.46.77.06,1.53.15,2.29.25.19.02.39.09.56.18.54.28,1.11.43,1.7.51.27.04.54.08.79.22.74.4,1.54.55,2.36.58,1.19.05,2.29.45,3.34.96.89.43,1.63,1.11,2.32,1.83.63.66,1.21,1.37,1.75,2.11.51.7,1.1,1.34,1.68,1.99.44.5.69,1.09,1.04,1.62.39.59.88,1.08,1.38,1.55,1.49,1.38,2.93,2.82,4.36,4.26.79.79,1.54,1.61,2.47,2.25.32.23.61.51.89.79.6.6,1.29,1.08,1.99,1.54.39.26.74.58,1.11.86.7.54,1.52.86,2.3,1.17.91.37,1.81.82,2.8.97.41.06.74.25,1.03.54.86.87,1.39,1.84,1.26,3.12-.09.82-.13,1.63-.53,2.38-.09.17-.16.37-.19.56-.12.74-.34,1.45-.68,2.12-.03.07-.07.14-.07.21-.1,1.06-.62,1.98-.99,2.94-.1.26-.19.51-.35.73-.16.23-.26.48-.31.75-.17.9-.19,1.73.49,2.51.86,1,1.82,1.9,2.71,2.86.64.69,1.33,1.33,2.04,1.95.43.37.88.72,1.33,1.06,1.01.77,1.69,1.81,2.39,2.83.14.2.27.43,0,.69-.48-.06-.81-.43-1.17-.7-.4-.29-.79-.59-1.21-.86-1.07-.71-2.15-1.41-3.16-2.2-.51-.39-1.04-.78-1.57-1.11-.78-.49-1.61-1.01-2.63-.79-.35-.28-.31-.66-.31-1.03,0-.52.06-1.04.06-1.56,0-1.24-.32-2.38-.95-3.47-.77-1.32-1.25-2.75-1.22-4.32.02-1.24-.01-2.48,0-3.72,0-.53-.05-1.04-.18-1.55-.14-.57-.3-.7-.87-.73-1.92-.12-3.81.05-5.67.59-.79.23-1.6.31-2.43.29-2.9-.09-5.64-.8-8.25-2.03-.99-.47-2.01-.86-3.03-1.24-1.32-.5-2.67-.48-4.04-.34-.45.04-.72.28-.87.7-.07.21-.07.44-.22.6-.07,0-.15.02-.16,0-.45-.67-.95-1.32-1.24-2.08-.32-.82-.96-1.04-1.68-.5-.46.34-.84.77-1.2,1.21-1.5,1.84-2.99,3.7-4.34,5.66-.31.45-.63.9-1.01,1.29-.56.58-.98,1.24-1.42,1.9-.48.71-1.14,1.24-1.73,1.84-1.05,1.06-1.97,2.23-2.95,3.35-.47.54-.95,1.08-1.44,1.61-.35.38-.79.57-1.3.66-1.32.22-2.66.35-4,.4-.57.02-1.14.06-1.71.1-1.1.06-2.03.44-2.68,1.36-.04.06-.11.1-.21.18-.1-.24.01-.4.11-.54.51-.77.74-1.67,1.18-2.48.58-1.06,1.04-2.18,1.61-3.25.35-.66.9-1.11,1.69-1.19.49-.05.98-.18,1.48-.16.48.02.92-.13,1.37-.3.99-.38,1.55-1.1,1.83-2.08.09-.34.2-.67.43-.94.06-.08.14-.16.16-.25.22-.97.73-1.84.95-2.81.13-.56.26-1.11.55-1.61.09-.15.18-.31.2-.48.13-1.2.76-2.25.96-3.43.04-.25.12-.48.24-.7.26-.43.4-.9.46-1.4.03-.24.08-.52.22-.7.52-.67.58-1.53.96-2.25.07-.14.09-.28.01-.51" style="fill: rgb(0, 54, 88); stroke-width: 0px;"/>
      <path class="cls-2" d="M410.65,279.79c.06-.35.19-.6.35-.82.79-1.11,1.39-2.34,2.02-3.55.52-1.01,1.14-1.96,1.67-2.96,1.29-2.42,2.93-4.58,4.6-6.73.41-.53.63-1.13.58-1.8-.06-.72-.05-1.44,0-2.15.04-.67-.09-1.34-.08-2.01.01-1.46.08-2.93.15-4.39.03-.69.48-1.2.94-1.65.88-.87,1.45-1.93,2-3.01.1-.2.22-.39.34-.58.08-.13.22-.23.25-.37.19-.83.78-1.5.92-2.34.03-.15.05-.31.13-.42.55-.79.69-1.75,1.1-2.59.02-.04.05-.09.06-.14.34-1.62.98-3.18,1.1-4.85.07-.94.21-1.87.44-2.79.14-.55.21-1.12.29-1.69.08-.56.27-1.05.66-1.47.12-.13.24-.25.51-.18.27.2.21.48.02.74-.27.36-.32.77-.32,1.2,0,.79,0,1.59-.02,2.38-.03,1.32.04,2.63.38,3.91.06.21.08.44.09.66.05,2.78.26,5.55.12,8.33-.04.69-.09,1.39-.16,2.08-.05.5-.21.95-.47,1.39-.58,1-1.11,2.03-1.65,3.06-.08.15-.13.32-.16.49-.37,2.07-.74,4.15-1.02,6.24-.19,1.46-.62,2.9-1.2,4.27-.29.68-.53,1.38-.98,1.99-.54.74-1.1,1.43-1.8,2.05-1.13,1-2.21,2.08-3.2,3.21-.72.82-1.5,1.33-2.6,1.55-1.68.34-3.18,1.09-4.36,2.4-.18.2-.37.4-.72.5" style="fill: rgb(0, 54, 88); stroke-width: 0px;"/>
      <g>
        <polygon class="cls-1" points="325.35 235.5 363.31 216.86 296.88 199.67 325.35 235.5" style="fill: rgb(0, 54, 88);"/>
        <g class="cls-6" style="clip-path: url(&quot;#clippath-5&quot;);">
          <rect class="cls-2" x="302.59" y="180.41" width="55.01" height="74.36" transform="translate(19.29 461.94) rotate(-71.57)" style="fill: rgb(0, 54, 88); stroke-width: 0px;"/>
        </g>
      </g>
      <g>
        <polygon class="cls-1" points="217.51 193.81 261 203.08 271.51 190.21 217.51 193.81" style="fill: rgb(0, 54, 88);"/>
        <g class="cls-5" style="clip-path: url(&quot;#clippath-6&quot;);">
          <rect class="cls-2" x="220.87" y="173" width="47.29" height="47.29" transform="translate(-67.43 230.49) rotate(-45)" style="fill: rgb(0, 54, 88); stroke-width: 0px;"/>
        </g>
      </g>
      <g>
        <polygon class="cls-1" points="277.98 224.95 294.85 250.61 313.33 250.23 288.04 215.87 277.98 224.95" style="fill: rgb(0, 54, 88);"/>
        <g class="cls-3" style="clip-path: url(&quot;#clippath-7&quot;);">
          <rect class="cls-2" x="275.25" y="213.09" width="40.8" height="40.3" transform="translate(-35.71 54.33) rotate(-9.9)" style="fill: rgb(0, 54, 88); stroke-width: 0px;"/>
        </g>
      </g>
      <g>
        <polygon class="cls-1" points="179.79 359.22 316.9 290.57 318.97 267.91 179.79 359.22" style="fill: rgb(0, 54, 88);"/>
        <g class="cls-4" style="clip-path: url(&quot;#clippath-8&quot;);">
          <rect class="cls-2" x="167.53" y="232.47" width="163.71" height="162.19" transform="translate(-147.56 259.25) rotate(-43.71)" style="fill: rgb(0, 54, 88); stroke-width: 0px;"/>
        </g>
      </g>
      <g>
        <polygon class="cls-1" points="345.97 308.41 337.87 321.42 337.87 322.03 395.44 305.34 345.97 308.41" style="fill: rgb(0, 54, 88);"/>
        <g class="cls-7" style="clip-path: url(&quot;#clippath-9&quot;);">
          <rect class="cls-2" x="336.74" y="299.19" width="59.83" height="28.99" transform="translate(-60.22 88.71) rotate(-12.76)" style="fill: rgb(0, 54, 88); stroke-width: 0px;"/>
        </g>
      </g>
    </g>
  </g>
</svg>