<?xml version="1.0" encoding="utf-8"?>
<svg xmlns="http://www.w3.org/2000/svg" viewBox="3.855 95.502 496.145 281.872">
  <g id="Layer_1" transform="matrix(0.998162, 0, 0, 1, -217.391678, -8.56178)" style="">
    <polygon class="cls-1" points="327.706 120.55 432.782 121.012 482.032 191.317 263.708 354.092 486.408 207.627 517.785 255.668 628.161 249.831 507.312 274.111 484.77 239.257 219.136 385.117 456.273 191.502 419.268 137.809 327.706 120.55" style="fill: rgb(0, 54, 88); stroke-width: 0px;"/>
    <polygon class="cls-1" points="452.788 129.377 492.362 185.018 626.238 105.281 571.873 105.281 558.527 117.728 586.352 118.106 537.665 144.041 466.99 116.031 452.788 129.377" style="fill: rgb(0, 54, 88); stroke-width: 0px;"/>
    <g transform="matrix(0.83987, 0, 0, 0.83987, 115.588203, -4.775826)">
      <path class="cls-1" d="M493.17,287.06c-.29-.32-.07-.64.06-.93.28-.58.57-1.16.91-1.7.97-1.58,1.57-3.31,1.98-5.1.36-1.59.87-3.14,1.4-4.68.34-1.01.96-1.87,1.53-2.75.46-.71.93-1.42,1.46-2.09.84-1.06.92-2.3.93-3.57,0-.44-.32-.74-.47-1.17.25-.99.47-2.01.76-3.02.27-.93.18-1.72-.3-2.61-.89-1.67-1.99-3.14-3.36-4.42-.15-.14-.28-.34-.46-.39-1.13-.35-2.12-1.09-3.32-1.21-1.64-.17-3.02-.94-4.33-1.85-.55-.39-1.1-.51-1.72-.36-.58.13-.88.48-.7,1.03.36,1.05.42,2.21,1.07,3.16.33.48.57,1.01.58,1.61,0,.55-.27.87-.82.79-1.71-.25-3.45-.24-5.09-.9-1.27-.51-2.61-.73-3.99-.54-.48.07-.95.01-1.42-.08-1.04-.21-2.08-.21-3.14-.09-.91.1-1.83.15-2.74.19-1.87.08-3.6.7-5.23,1.54-1.3.67-2.66,1.02-4.08,1.16-1.89.19-3.79.3-5.68.44-.27.02-.55.06-.77-.15-.12-.25.04-.39.2-.52,1.53-1.24,2.88-2.68,4.37-3.95,1.93-1.64,3.69-3.49,5.88-4.83,1.06-.65,2-1.51,3-2.26,1.97-1.48,3.89-3.05,5.92-4.45.39-.26.79-.38,1.24-.36,1.16.05,2.3.2,3.4.56,1.09.36,2.22.61,3.19,1.29.46.32,1.03.31,1.58.27,1.62-.12,3.18.15,4.68.76.63.26,1.3.36,1.98.44,1.92.22,3.83.47,5.78.4,1.2-.04,2.37-.28,3.5-.59.95-.26,1.85-.81,2.74-1.3,1.57-.87,3.1-1.81,4.57-2.82,1.7-1.16,3.42-2.3,4.93-3.72.37-.35.78-.64,1.17-.98,1.24-1.08,2.12-2.46,3.12-3.74,1.1-1.42,2.09-2.93,3.4-4.18.27-.26.53-.53.75-.83.79-1.08,1.98-1.59,3.08-2.26,1.42-.87,3.08-1.18,4.45-2.13.89-.62,1.49-1.47,2.12-2.3.88-1.16,1.56-2.45,2.32-3.69.78-1.28,1.87-2.33,3.04-3.26.52-.42,1.19-.63,1.79-.92,1.11-.54,2.15-1.25,3.41-1.54.94-.22,1.79-.78,2.6-1.33.34-.23.67-.47,1.05-.61.26-.09.49-.21.71-.39.96-.76,2.05-1.28,3.14-1.83.87-.43,1.76-.87,2.59-1.37.9-.54,1.89-.89,2.74-1.53.37-.28.84-.44,1.18-.78.22-.22.49-.37.79-.44,1.01-.24,1.75-.86,2.36-1.66.25-.33.53-.63.86-.86,1.58-1.08,2.92-2.43,4.31-3.72,1.34-1.24,2.73-2.44,4.12-3.62.62-.53,1.24-1.05,1.79-1.66.23-.25.49-.48.76-.67.66-.48,1.24-.44,1.83.13.68.66,1.35,1.33,2,2.02.86.92,1.87,1.66,2.84,2.46.24.2.53.3.83.38.3.08.58.2.82.39.86.69,1.99.84,2.87,1.5.3.22.72.17,1.09.18.68.02,1.36,0,2.04.04,1.39.08,2.72.3,4.06.77,1.26.44,2.44,1.03,3.56,1.66,1.45.82,3,1.37,4.48,2.09,1.86.9,3.56,2.07,5.03,3.54.46.45.93.89,1.4,1.33.12.11.27.23.42.27.94.29,1.87.61,2.83.82.83.18,1.64.06,2.47-.28,1.84-.77,3.8-.76,5.7-.25.96.26,1.82.87,2.65,1.46.16.12.3.32.48.36,1.11.27,1.99,1.01,3.02,1.43,1,.4,1.96.92,2.82,1.59.11.08.2.21.32.25,1.1.35,1.72,1.26,2.5,2.01.7.67,1.42,1.32,2.45,1.57.81.2,1.6.58,2.32,1.02.5.31.85.86,1.29,1.28.75.73,1.57,1.38,2.46,1.95.68.43,1.31.95,2,1.38.55.35,1.14.57,1.72.83,1.6.72,3.38,1.01,4.84,2.06.89.63,1.41,1.54,1.94,2.44.69,1.17,1.32,2.37,2.12,3.46.56.76,1.43,1.01,2.31,1.12,1.96.26,3.77-.36,5.51-1.1,1.03-.43,1.96-.44,2.94-.03,1.27.53,2.35,1.3,3.3,2.31.61.65,1.27,1.32,2.2,1.59.25.07.46.28.68.43.2.13.37.34.59.38.81.19,1.46.72,2.2,1,1.47.55,2.53,1.55,3.52,2.67.67.76,1.53,1.23,2.39,1.69.53.29,1.07.6,1.61.85,1.31.6,2.27,1.59,3.2,2.61.72.79,1.63,1.32,2.45,1.96.96.74,1.99,1.42,3.09,1.9.97.42,1.82,1.03,2.75,1.49.7.35,1.31.82,2,1.19,1.17.63,2.43,1.02,3.62,1.61,1.19.6,2.54.72,3.83.99,1.95.4,3.92.3,5.88,0,1.62-.24,3.25-.22,4.88-.21,1.56,0,3.12.03,4.68-.11,2.03-.18,4.07,0,6.11-.1.29-.01.62-.03.84.32-.04.49-.46.49-.8.55-1.27.23-2.53.53-3.81.64-3.05.26-6.05.78-9.07,1.23-.17.02-.34.06-.51.05-2.07-.02-4.13.18-6.2.27-1.4.06-2.71-.31-3.97-1.03-.96-.55-1.99-1.01-2.98-1.51-1.37-.68-2.81-1.18-4.21-1.75-1.27-.51-2.43-1.36-3.85-1.52-.32-.04-.65-.22-.93-.4-.46-.3-.96-.51-1.48-.67-.36-.11-.7-.26-1-.49-.33-.25-.7-.42-1.1-.51-.16-.04-.37-.05-.48-.15-.91-.81-2.16-.96-3.15-1.61-.32-.21-.68-.3-1.04-.39-.56-.14-1.11-.31-1.6-.64-.37-.25-.8-.37-1.24-.44-.17-.03-.35-.01-.5-.08-1.55-.68-3.21-1.03-4.76-1.72-1.23-.55-2.41-1.17-3.71-1.6-1.64-.54-3.22-1.33-4.5-2.63-.76-.78-1.64-1.53-2.85-1.63-.38-.03-.73-.19-1.05-.38-1-.6-2.09-.76-3.23-.77-.41,0-.82-.04-1.22,0-1.6.14-3.08-.3-4.53-.92-.74-.31-1.21-.95-1.54-1.56-.44-.82-1.02-1.52-1.53-2.27-1.28-1.89-2.77-3.58-4.57-5.02-.95-.76-1.81-1.63-2.7-2.46-1.04-.98-2.29-1.68-3.44-2.52-.45-.33-1.02-.54-1.54-.77-1.18-.51-2.19-1.32-3.36-1.86-1.03-.47-2.15-.79-3.06-1.56-.53-.46-1.28-.58-1.88-.98-.76-.51-1.46-1.1-2.2-1.63-1.18-.85-2.3-1.79-3.5-2.61-.98-.67-2.05-1.19-3.26-1.32-2.33-.25-4.68-.12-7.02-.17-1.12-.02-2.23-.14-3.35-.22-.2-.02-.42-.04-.59-.13-1.34-.7-2.74-1.33-3.89-2.35-1.18-1.04-2.54-1.78-3.9-2.52-.37-.2-.78-.23-1.19-.26-.95-.08-1.88-.27-2.78-.61-.51-.19-1.04-.3-1.56-.45-.23-.07-.5-.08-.68-.21-.91-.66-2-.97-2.95-1.55-.03-.02-.05-.05-.08-.06-1.37-.36-2.55-1.25-3.97-1.47-.58-.09-1.12-.24-1.58-.63-.23-.19-.54-.28-.81-.4-.25-.11-.55-.15-.74-.33-.82-.76-1.89-1.05-2.82-1.59-1.48-.87-3-.62-4.44.22-.26.15-.48.38-.74.54-.47.3-.72.72-.73,1.27-.02.97-.46,1.8-.77,2.7-.6,1.75-1.25,3.52-1.33,5.41-.05,1.25-.05,2.51-.07,3.77,0,.95-.26,1.75-.92,2.5-1.02,1.18-2.04,2.35-3.13,3.47-.78.79-1.23,1.79-1.3,2.91-.08,1.24-.32,2.41-.92,3.51-.3.55-.37,1.16.12,1.65.32.11.53,0,.69-.19.35-.41.71-.82,1.02-1.27.8-1.17,1.61-2.34,2.34-3.56.5-.82,1.13-1.52,1.74-2.25.48-.57,1.07-1.04,1.49-1.67.19-.28.43-.54.86-.43.46.34.31.84.27,1.3-.04.44-.17.87-.18,1.31-.02.84.36,1.2,1.18,1.14.3-.02.63-.07.88-.22,1.32-.78,2.53-1.72,3.43-2.97.79-1.1,1.5-2.25,2.23-3.39.2-.31.4-.57.8-.47.36.09.44.4.44.72,0,1.66.12,3.32-.08,4.98-.2,1.68-.41,3.37-.5,5.06-.08,1.38-.68,2.54-1.28,3.72-.16.32-.43.54-.78.6-1.12.21-1.97.94-2.81,1.58-1.55,1.19-3.08,2.43-4.35,3.96-.86,1.04-.85,1.58,0,2.65.73.91,1.59,1.77,1.87,2.99.1.42.42.68.76.93.3.22.58.47.89.68.8.55,1.17,1.29,1.41,2.24.3,1.16.79,2.29,1.53,3.28q.2.26.21.83c-.43.36-.86.15-1.21-.1-1.13-.84-2.52-.98-3.79-1.41-1.71-.58-3.36-.15-4.92.6-.61.3-1.05.85-1.54,1.32-1.16,1.1-2.13,2.37-3.15,3.6-1.06,1.28-2.03,2.63-3.01,3.97-.33.45-.51.95-.78,1.43-.79,1.42-1.62,2.81-2.56,4.14-.44.62-.72,1.37-1.21,1.99-.12.16-.22.35-.46.38-.3-.09-.3-.35-.28-.58.15-2.38-.14-4.74-.22-7.12-.06-1.54.05-3.05.91-4.41.16-.25.21-.57.27-.87.23-1.1.83-2,1.59-2.79.53-.55.88-1.2,1.31-1.81,1.34-1.91,2.68-3.82,3.82-5.87.6-1.07,1.45-1.96,2.33-2.81.64-.62,1.01-1.43,1.57-2.12.38-.47.25-.92-.29-1.43-.69-.65-1.43-1.24-2.01-2.01-.22-.3-.48-.56-.61-.93-.15-.43-.46-.74-.79-1.04-1.91-1.75-4.1-1.51-6.31-.82-.78.24-1.53.52-2.35.59-.78.06-1.54.23-2.27.55-.34.15-.7.29-1.06.34-.86.11-1.65.37-2.41.78-.29.16-.64.26-.97.29-1.93.17-3.81.64-5.72.95-.37.06-.74.07-1.11.13-.69.13-.95.39-.97,1.09-.02.64.02,1.29.09,1.93.23,2.3.83,4.54,1.33,6.79.18.81.56,1.62,1.02,2.31.5.76.95,1.56,1.5,2.29.56.75.99,1.61,1.42,2.45.85,1.66,1.66,3.33,2.47,5,.54,1.11.53,2.22-.07,3.31-.4.72-.93,1.35-1.52,1.9-.62.57-.88,1.23-.89,2.07-.03,2.05-.05,2.06-2.09,2.54-2.09.49-4.21.71-6.36.71-1.84,0-3.66.16-5.42.75-.55.18-1.07.42-1.56.73-2.48,1.57-4.28,3.7-5.5,6.38-.83,1.82-1.76,3.59-2.99,5.19-.7.91-1.31,1.9-1.92,2.88-.58.93-1.34,1.71-2.04,2.53-.13.15-.28.29-.5.29-.24-.29-.04-.54.05-.78.89-2.39,1.96-4.7,2.93-7.05.94-2.29,1.76-4.62,2.24-7.06.56-2.81.84-5.64.95-8.49.09-2.32.55-4.58,1.3-6.77.57-1.67.15-3.23-.47-4.74-.36-.87-.39-1.55.19-2.35.86-1.19,1.95-2.17,2.85-3.31.66-.83,1.01-1.83,1.52-2.75.28-.49.17-1.13.09-1.71-.05-.37-.27-.63-.63-.72-.81-.2-1.59-.22-2.37.2-1.67.91-3.11,2.17-4.66,3.25-.14.1-.25.27-.4.3-.94.2-1.55.95-2.36,1.36-.89.45-1.41,1.2-1.48,2.17-.11,1.37-.4,2.68-.89,3.95-.16.41-.2.86-.25,1.3-.08.68-.25,1.33-.66,1.9-.1.14-.21.29-.23.45-.26,1.57-1.35,2.69-2.08,4.01-.55.98-1.32,1.91-1.19,3.18.05.53-.35.93-.59,1.38-.83,1.5-1.86,2.91-2.24,4.64-.23,1.03-.45,2.05-.58,3.1-.28,2.34-.81,4.6-1.88,6.73-.51,1.03-1.19,1.9-2.09,2.59-1.15.86-1.97,1.96-2.47,3.29-.27.73-.71,1.29-1.33,1.75-.96.71-1.86,1.48-2.62,2.4-.11.13-.21.27-.43.23Z" style="fill: rgb(0, 54, 88); stroke-width: 0px;"/>
      <path class="cls-1" d="M597.6,240.91c-.26-.11-.51-.2-.73-.29-.06-.09-.12-.14-.12-.2-.05-1.59-.11-3.18.13-4.77.09-.63.36-1.13.86-1.56,1.38-1.17,2.19-2.72,2.82-4.39.09-.25.19-.51.35-.73.28-.4.47-.82.56-1.29.07-.4.2-.8.43-1.14.36-.51.57-1.08.7-1.68.08-.37.25-.7.47-1.01.28-.39.47-.82.58-1.29.11-.47.33-.89.6-1.28.17-.25.34-.53.4-.82.22-.99.94-1.72,1.32-2.62.24-.57.84-.67,1.4-.62,1.05.08,2.09.21,3.14.34.26.03.54.12.77.25.73.39,1.52.58,2.33.7.37.05.74.11,1.08.29,1.01.55,2.11.75,3.23.8,1.63.07,3.13.62,4.56,1.31,1.22.59,2.23,1.52,3.17,2.5.87.91,1.65,1.87,2.39,2.89.69.95,1.51,1.83,2.29,2.72.6.68.94,1.49,1.42,2.22.53.81,1.2,1.47,1.89,2.12,2.04,1.89,4.01,3.85,5.97,5.82,1.08,1.08,2.11,2.2,3.37,3.08.44.31.84.69,1.22,1.08.82.82,1.77,1.47,2.72,2.1.54.35,1.02.79,1.52,1.18.96.74,2.08,1.17,3.15,1.61,1.24.5,2.47,1.12,3.83,1.33.56.09,1.01.34,1.41.74,1.18,1.18,1.91,2.51,1.72,4.26-.12,1.12-.17,2.23-.73,3.25-.13.23-.21.51-.26.77-.17,1.01-.46,1.98-.93,2.9-.05.09-.09.19-.1.29-.13,1.45-.84,2.7-1.35,4.02-.13.35-.26.7-.49,1-.22.31-.35.66-.42,1.03-.23,1.23-.25,2.37.66,3.43,1.18,1.37,2.48,2.6,3.71,3.91.88.94,1.82,1.82,2.79,2.67.59.51,1.21.99,1.82,1.45,1.39,1.06,2.31,2.47,3.26,3.86.19.28.37.59,0,.95-.65-.09-1.1-.59-1.6-.95-.55-.4-1.08-.8-1.65-1.18-1.46-.97-2.94-1.93-4.33-3-.7-.54-1.42-1.06-2.15-1.52-1.07-.66-2.2-1.38-3.6-1.08-.48-.38-.43-.91-.42-1.4.01-.71.09-1.42.08-2.13-.01-1.69-.44-3.26-1.3-4.74-1.05-1.81-1.7-3.76-1.67-5.9.03-1.7-.01-3.39,0-5.09,0-.72-.07-1.42-.24-2.12-.19-.78-.41-.95-1.18-1-2.63-.16-5.21.07-7.76.8-1.08.31-2.19.43-3.32.4-3.96-.12-7.71-1.09-11.28-2.78-1.35-.64-2.74-1.17-4.14-1.7-1.8-.68-3.65-.65-5.52-.47-.62.06-.99.39-1.18.96-.1.28-.09.61-.3.82-.1,0-.21.03-.22,0-.61-.92-1.3-1.8-1.7-2.84-.43-1.13-1.31-1.42-2.29-.68-.63.47-1.15,1.05-1.65,1.66-2.05,2.52-4.09,5.05-5.94,7.73-.42.61-.86,1.22-1.38,1.76-.76.79-1.34,1.7-1.95,2.6-.65.97-1.55,1.7-2.36,2.52-1.44,1.45-2.7,3.05-4.03,4.58-.64.74-1.3,1.47-1.96,2.2-.48.52-1.08.78-1.78.9-1.81.31-3.63.47-5.47.54-.78.03-1.56.09-2.34.13-1.5.09-2.77.61-3.67,1.87-.06.08-.15.13-.28.25-.14-.32.02-.55.15-.74.7-1.05,1.01-2.29,1.61-3.39.8-1.45,1.42-2.99,2.2-4.45.48-.91,1.24-1.51,2.31-1.63.67-.08,1.34-.25,2.02-.21.66.03,1.26-.17,1.87-.4,1.35-.52,2.13-1.5,2.51-2.85.13-.46.27-.91.58-1.29.09-.1.18-.22.21-.34.31-1.32.99-2.52,1.3-3.84.18-.76.35-1.52.75-2.21.12-.2.25-.43.28-.65.17-1.64,1.04-3.08,1.31-4.69.06-.34.16-.66.33-.96.35-.59.55-1.23.63-1.92.04-.33.11-.71.3-.96.71-.92.79-2.09,1.31-3.07.1-.18.12-.38.02-.7Z" style="fill: rgb(0, 54, 88); stroke-width: 0px;"/>
      <path class="cls-1" d="M566.72,273.23c.09-.48.26-.82.47-1.12,1.09-1.52,1.91-3.2,2.76-4.85.71-1.38,1.56-2.68,2.29-4.05,1.76-3.3,4-6.27,6.29-9.2.56-.72.87-1.55.79-2.46-.08-.98-.06-1.96,0-2.95.06-.92-.12-1.83-.11-2.74.02-2,.11-4,.2-6,.05-.95.66-1.64,1.28-2.25,1.21-1.19,1.98-2.64,2.74-4.12.14-.27.3-.53.46-.79.11-.17.3-.32.34-.5.27-1.13,1.06-2.05,1.27-3.2.03-.2.07-.42.18-.58.75-1.08.94-2.39,1.51-3.54.03-.06.07-.12.08-.19.47-2.22,1.34-4.35,1.51-6.63.1-1.29.28-2.56.61-3.81.19-.75.28-1.53.39-2.31.11-.76.38-1.44.9-2.01.17-.18.33-.35.69-.25.37.27.29.66.03,1.01-.37.5-.43,1.05-.43,1.64,0,1.09,0,2.17-.03,3.26-.04,1.81.05,3.6.52,5.35.08.29.12.6.12.91.07,3.8.36,7.59.16,11.4-.05.95-.12,1.9-.21,2.84-.07.68-.29,1.3-.64,1.91-.8,1.37-1.51,2.78-2.25,4.18-.11.21-.18.44-.22.68-.51,2.84-1.01,5.67-1.39,8.53-.26,1.99-.85,3.96-1.64,5.84-.39.93-.73,1.89-1.34,2.72-.74,1.01-1.5,1.96-2.46,2.8-1.55,1.36-3.02,2.84-4.38,4.39-.99,1.13-2.06,1.82-3.55,2.12-2.29.46-4.35,1.49-5.96,3.28-.24.27-.5.55-.99.69Z" style="fill: rgb(0, 54, 88); stroke-width: 0px;"/>
    </g>
  </g>
</svg>